<svg width="32" height="32" viewBox="0 0 32 32" fill="none" xmlns="http://www.w3.org/2000/svg">
<path d="M16 2C8.3 2 2 8.3 2 16C2 18.9 2.9 21.8 4.6 24.2C4.7 24.4 5 24.5 5.2 24.5H26.7C26.9 24.5 27.2 24.4 27.3 24.2C29.1 21.8 30 19 30 16C30 8.3 23.7 2 16 2ZM26.4 23H5.6C4.3 21.1 3.6 19 3.5 16.8H4.4C4.8 16.8 5.2 16.5 5.2 16C5.2 15.5 4.9 15.2 4.4 15.2H3.5C3.7 12.3 4.8 9.7 6.6 7.7L7.2 8.3C7.3 8.4 7.5 8.5 7.7 8.5C7.9 8.5 8.1 8.4 8.2 8.3C8.5 8 8.5 7.5 8.2 7.2L7.7 6.7C9.7 4.9 12.3 3.8 15.2 3.6V4.5C15.2 4.9 15.5 5.3 16 5.3C16.5 5.3 16.8 5 16.8 4.5V3.5C19.7 3.7 22.3 4.8 24.3 6.6L23.7 7.2C23.4 7.5 23.4 8 23.7 8.3C23.8 8.4 24 8.5 24.2 8.5C24.4 8.5 24.6 8.4 24.7 8.3L25.3 7.7C27.1 9.7 28.3 12.3 28.4 15.2H27.5C27.1 15.2 26.7 15.5 26.7 16C26.7 16.5 27 16.8 27.5 16.8H28.4C28.3 19 27.6 21.1 26.4 23Z" fill="#151515"/>
<path d="M21.1 10L18 13.1C17.4 12.7 16.8 12.5 16 12.5C14.1 12.5 12.5 14.1 12.5 16C12.5 17.9 14.1 19.5 16 19.5C17.9 19.5 19.5 17.9 19.5 16C19.5 15.4 19.3 14.7 19 14.2L22.2 11C22.5 10.7 22.5 10.2 22.2 9.9C21.9 9.6 21.4 9.7 21.1 10ZM16 18C14.9 18 14 17.1 14 16C14 14.9 14.9 14 16 14C17.1 14 18 14.9 18 16C18 17.1 17.1 18 16 18Z" fill="#151515"/>
<path d="M21.3 28.5H10.7C10.3 28.5 9.9 28.8 9.9 29.3C9.9 29.8 10.3 30 10.7 30H21.2C21.6 30 22 29.7 22 29.2C22 28.7 21.7 28.5 21.3 28.5Z" fill="#151515"/>
</svg>
