<svg width="28" height="26" viewBox="0 0 28 26" fill="none" xmlns="http://www.w3.org/2000/svg">
<path d="M14 17.4465C13.2 17.4465 12.4 17.2465 11.7 16.8465C9.4 15.6465 8.6 12.7465 9.8 10.4465C11.1 8.14649 13.9 7.34649 16.2 8.54649C17.3 9.14649 18.1 10.1465 18.5 11.3465C18.9 12.5465 18.7 13.8465 18.1 14.9465C17.5 16.0465 16.5 16.8465 15.3 17.2465C14.9 17.3465 14.4 17.4465 14 17.4465ZM11.2 11.1465C10.3 12.7465 10.9 14.6465 12.5 15.5465C13.3 15.9465 14.1 16.0465 15 15.8465C15.8 15.6465 16.5 15.0465 16.9 14.3465C17.3 13.5465 17.4 12.7465 17.2 11.8465C17 11.0465 16.4 10.3465 15.7 9.94649C14 9.04649 12 9.64649 11.2 11.1465Z" fill="#151515"/>
<path d="M8.9 25.4465C8.3 25.4465 7.8 25.3465 7.3 25.0465C6 24.3465 5.3 22.8465 5.6 21.3465L6.2 18.6465C6.3 18.2465 6.2 17.7465 6 17.4465C5.8 17.0465 5.4 16.8465 5 16.7465L2.8 16.2465C1.1 15.8465 0 14.5465 0 12.9465C0 11.4465 1 10.0465 2.4 9.64649L4.9 8.84649C5.3 8.74649 5.7 8.44649 5.9 8.04649C6.1 7.64649 6.1 7.24649 6 6.84649L5.3 4.64649C4.8 3.14649 5.4 1.54649 6.8 0.746491C8.1 -0.0535085 9.8 0.146492 10.9 1.14649L12.9 2.94649C13.2 3.24649 13.6 3.44649 14.1 3.34649C14.5 3.34649 14.9 3.14649 15.2 2.84649L16.7 1.14649C17.8 -0.0535085 19.5 -0.353508 20.8 0.446492C22.1 1.14649 22.8 2.74649 22.5 4.14649L21.9 6.74649C21.8 7.14649 21.9 7.64649 22.1 7.94649C22.3 8.34649 22.7 8.54649 23.1 8.64649L25.3 9.14649C26.8 9.44649 27.9 10.8465 28 12.3465C28 13.8465 27.1 15.2465 25.6 15.6465L23 16.5465C22.6 16.6465 22.2 16.9465 22 17.3465C21.8 17.7465 21.8 18.1465 21.9 18.6465L22.6 20.8465C23.1 22.3465 22.5 23.9465 21.1 24.7465C19.8 25.5465 18.1 25.3465 17 24.3465L15.1 22.5465C14.9 22.1465 14.5 22.0465 14 22.0465C13.6 22.0465 13.2 22.2465 12.9 22.5465L11.4 24.2465C10.7 25.0465 9.8 25.4465 8.9 25.4465ZM8.5 1.74649C8.2 1.74649 7.8 1.84649 7.5 2.04649C6.8 2.44649 6.5 3.34649 6.7 4.24649L7.4 6.34649C7.7 7.14649 7.6 8.04649 7.2 8.74649C6.8 9.54649 6.2 10.0465 5.4 10.3465L2.8 11.0465C2 11.2465 1.4 12.0465 1.5 12.8465C1.5 13.7465 2.1 14.4465 3 14.6465L5.2 15.1465C6 15.3465 6.7 15.8465 7.2 16.5465C7.7 17.2465 7.8 18.1465 7.6 18.9465L7 21.6465C6.8 22.4465 7.2 23.3465 7.9 23.7465C8.7 24.1465 9.6 24.0465 10.2 23.3465L11.7 21.6465C12.3 21.0465 13 20.6465 13.9 20.6465C14.8 20.6465 15.6 20.9465 16.2 21.4465L18.1 23.2465C18.7 23.8465 19.6 23.9465 20.4 23.4465C21.2 22.9465 21.5 22.0465 21.2 21.2465L20.6 19.0465C20.3 18.2465 20.4 17.3465 20.8 16.6465C21.2 15.9465 21.8 15.3465 22.7 15.1465L25.3 14.3465C26.1 14.1465 26.6 13.3465 26.6 12.5465C26.6 11.6465 26 10.9465 25.1 10.7465L22.9 10.2465C22.1 10.0465 21.4 9.54649 20.9 8.84649C20.4 8.14649 20.3 7.24649 20.5 6.44649L21 3.84649C21.2 3.04649 20.8 2.14649 20.1 1.74649C19.3 1.34649 18.4 1.44649 17.8 2.14649L16.3 3.84649C15.7 4.44649 15 4.84649 14.1 4.84649C13.2 4.84649 12.5 4.54649 11.8 4.04649L9.8 2.24649C9.4 1.94649 9 1.74649 8.5 1.74649Z" fill="#151515"/>
</svg>
